<svg id="Layer_1" data-name="Layer 1" xmlns="http://www.w3.org/2000/svg" viewBox="0 0 352.73 94.96"><defs><clipPath id="clip-path"><path fill="none" d="M9.78 11.29h65.73V68.2H9.78z"/></clipPath><style>.cls-7{fill:#0e7abf}.cls-10{fill:#0068ab}.cls-11{fill:#1e3667}</style></defs><path d="M88.66 81l3.59-10.42h1.49l3.48 10.46H95.8l-1-3.19H91L90 81zm3.21-5.82l-.5 1.59h3.13L94 75.2c-.19-.58-.37-1.17-.53-1.75s-.33-1.17-.5-1.77h-.07c-.16.6-.33 1.19-.5 1.77s-.33 1.16-.53 1.74zm9.05 5.9l.08-10.44h2.61a4.85 4.85 0 013.65 1.36 5.41 5.41 0 011.23 3.84 6.91 6.91 0 01-.33 2.22 4.34 4.34 0 01-1 1.65 4 4 0 01-1.53 1 5.61 5.61 0 01-2.08.34zm1.33-1.08h1.19a3.35 3.35 0 002.75-1.08 4.68 4.68 0 00.94-3.08 4.59 4.59 0 00-.9-3 3.44 3.44 0 00-2.74-1.06h-1.19zm8.82-8.19a.91.91 0 01-.64-.24.8.8 0 01-.26-.61.78.78 0 01.27-.61.89.89 0 01.64-.22 1 1 0 01.65.23.8.8 0 01.27.64.85.85 0 01-.27.61.93.93 0 01-.66.2zm-.72 9.32l.05-7.73h1.3v7.73zm6.15 3.6a5.85 5.85 0 01-1.31-.14 3.19 3.19 0 01-1-.41 2.15 2.15 0 01-.65-.66 1.7 1.7 0 01-.22-.89 1.6 1.6 0 01.31-.94 3.38 3.38 0 01.83-.81v-.06a1.5 1.5 0 01-.48-.49 1.4 1.4 0 01-.2-.77 1.43 1.43 0 01.28-.86 2.56 2.56 0 01.57-.57v-.06a3 3 0 01-.68-.86 2.34 2.34 0 01-.31-1.23 2.65 2.65 0 01.87-2 2.66 2.66 0 01.94-.54 3.21 3.21 0 011.12-.19 2.91 2.91 0 01.6.06 5.07 5.07 0 01.5.14h2.68v1h-1.59a2.3 2.3 0 01.63 1.59 2.83 2.83 0 01-.23 1.12 2.4 2.4 0 01-.61.84 2.71 2.71 0 01-.9.53 3.16 3.16 0 01-1.11.19 2.46 2.46 0 01-.59-.08 3.49 3.49 0 01-.57-.2 1.61 1.61 0 00-.35.39.9.9 0 00-.15.53.77.77 0 00.28.61 1.75 1.75 0 001.08.24h1.5a3.7 3.7 0 012 .45 1.54 1.54 0 01.66 1.41 2 2 0 01-.27 1 2.55 2.55 0 01-.79.85 4.11 4.11 0 01-1.23.57 5.55 5.55 0 01-1.61.24zm.19-.91a3.54 3.54 0 001-.12 3 3 0 00.78-.35 1.66 1.66 0 00.49-.5 1.1 1.1 0 00.18-.59.78.78 0 00-.39-.75 2.58 2.58 0 00-1.16-.21h-1.83a3.1 3.1 0 01-.51-.11 2.12 2.12 0 00-.61.63 1.31 1.31 0 00-.19.67 1.1 1.1 0 00.59 1 3 3 0 001.65.33zm-.16-6a1.61 1.61 0 00.63-.12 1.64 1.64 0 00.53-.37 1.73 1.73 0 00.36-.57 2.13 2.13 0 00.13-.78 1.75 1.75 0 00-.47-1.33 1.58 1.58 0 00-1.16-.47 1.57 1.57 0 00-1.16.46 1.76 1.76 0 00-.48 1.33 1.92 1.92 0 00.12.77 1.61 1.61 0 00.35.58 1.75 1.75 0 00.53.37 1.44 1.44 0 00.62.15zm5.88-5.94a.92.92 0 01-.64-.25.76.76 0 01-.26-.6.77.77 0 01.26-.61 1 1 0 011.29 0 .77.77 0 01.26.62.79.79 0 01-.26.6.93.93 0 01-.65.24zm-.72 9.32v-7.74H123v7.74zm6.05.22a2.44 2.44 0 01-1-.2 1.8 1.8 0 01-.69-.52 2.11 2.11 0 01-.36-.82 4.34 4.34 0 01-.11-1V74.6h-1.14v-1l1.21-.07.17-2.17h1.1v2.16H129v1.07h-2.09v4.29a1.94 1.94 0 00.26 1.11 1.06 1.06 0 00.93.4 1.85 1.85 0 00.44-.06 3.58 3.58 0 00.43-.15l.25 1a5.67 5.67 0 01-.69.2 3.81 3.81 0 01-.79.04zm4.6.03a2.4 2.4 0 01-1.61-.58 2.08 2.08 0 01-.63-1.63 2.12 2.12 0 011.14-1.94 9.26 9.26 0 013.62-.93 3.51 3.51 0 00-.07-.72 2 2 0 00-.24-.62 1.31 1.31 0 00-.49-.44 1.64 1.64 0 00-.78-.17 3.12 3.12 0 00-1.26.25 5.56 5.56 0 00-1.06.56l-.5-.91a7.84 7.84 0 011.33-.66 4.36 4.36 0 011.72-.32 2.35 2.35 0 012 .88 3.87 3.87 0 01.63 2.32v4.74h-1.08l-.11-.92h-.05a7.17 7.17 0 01-1.19.78 3.11 3.11 0 01-1.37.31zm.39-1a2.19 2.19 0 001.06-.26 5.57 5.57 0 001.05-.76v-2.2a13.67 13.67 0 00-1.63.29 4.44 4.44 0 00-1.07.41 1.58 1.58 0 00-.59.55 1.3 1.3 0 00-.19.67 1.12 1.12 0 00.39 1 1.64 1.64 0 00.98.25zm6.93 1.04a1.24 1.24 0 01-1.07-.45 2.29 2.29 0 01-.31-1.31l.06-9.77h1.3v9.86a.66.66 0 00.11.45.33.33 0 00.25.13h.29l.17 1a1.26 1.26 0 01-.31.09 2.59 2.59 0 01-.49 0zm6.81-.15l-2.15-10.45h1.36l1.07 5.69c.09.57.19 1.14.29 1.69s.2 1.11.3 1.69h.06c.12-.58.24-1.14.37-1.7s.26-1.11.38-1.67l1.48-5.67h1.21l1.41 5.69c.13.55.25 1.11.38 1.67s.24 1.14.37 1.71h.06c.1-.57.2-1.14.3-1.69s.2-1.12.31-1.68L154.8 71h1.27l-2.22 10.43h-1.59l-1.54-6.29c-.09-.41-.18-.8-.26-1.19s-.15-.78-.24-1.19h-.06l-.27 1.19c-.09.38-.18.78-.27 1.18L148 81.34zm13.79.27a3.67 3.67 0 01-1.36-.28 3.47 3.47 0 01-1.14-.8 4 4 0 01-.78-1.27 4.89 4.89 0 01-.28-1.72 4.63 4.63 0 01.3-1.72 4 4 0 01.8-1.28 3.3 3.3 0 011.14-.79 3.7 3.7 0 011.36-.26 3.48 3.48 0 011.36.28 3.2 3.2 0 011.13.8 3.77 3.77 0 01.78 1.29 4.63 4.63 0 01.29 1.72 4.78 4.78 0 01-.31 1.71 3.61 3.61 0 01-.79 1.27 3.41 3.41 0 01-1.14.78 3.51 3.51 0 01-1.36.27zm0-1.09a1.88 1.88 0 00.91-.21 2 2 0 00.71-.6 2.79 2.79 0 00.46-.93 4.46 4.46 0 00.17-1.2 4.24 4.24 0 00-.16-1.22 3 3 0 00-.44-1 2.1 2.1 0 00-.71-.62 2 2 0 00-2.52.6 3.05 3.05 0 00-.46.94 4.28 4.28 0 00-.17 1.22 4.5 4.5 0 00.15 1.21 3.1 3.1 0 00.45.93 2 2 0 00.71.61 1.82 1.82 0 00.9.27zm5.33.92v-7.73h1.08l.11 1.4a3.75 3.75 0 011-1.16 2 2 0 011.24-.42 2.19 2.19 0 01.83.16l-.27 1.15a2.68 2.68 0 00-.35-.1 2.06 2.06 0 00-.39 0 1.77 1.77 0 00-1 .39 3.11 3.11 0 00-.94 1.38v5zm5.41.04l.07-11.33h1.29v7.67l3.32-4h1.45l-2.62 3.08 2.92 4.65H176l-2.24-3.73-1.46 1.68v2zm8.2.04v-6.67h-1.05v-1l1.05-.07v-1.22a2.93 2.93 0 01.56-1.87 2.05 2.05 0 011.71-.67 3.14 3.14 0 01.7.07 3.4 3.4 0 01.59.19l-.29 1a2.12 2.12 0 00-.87-.2c-.73 0-1.09.49-1.09 1.49v1.23h1.64v1.06h-1.64v6.67zm7.18.23a3.47 3.47 0 01-2.49-1.07 4.06 4.06 0 01-.78-1.28 4.79 4.79 0 01-.28-1.71 4.59 4.59 0 01.3-1.72 3.93 3.93 0 01.8-1.28 3.3 3.3 0 011.14-.79 3.47 3.47 0 011.36-.26 3.31 3.31 0 011.36.28 3.2 3.2 0 011.13.8 3.82 3.82 0 01.78 1.28 4.69 4.69 0 01.29 1.73 4.78 4.78 0 01-.31 1.71 3.86 3.86 0 01-.79 1.27 3.41 3.41 0 01-1.14.78 3.34 3.34 0 01-1.37.26zm0-1.08a2 2 0 00.91-.21 2 2 0 00.71-.6 2.89 2.89 0 00.46-.93 4.47 4.47 0 00.17-1.21 4.17 4.17 0 00-.16-1.21 2.7 2.7 0 00-.45-1 1.89 1.89 0 00-.7-.62 2 2 0 00-1.81 0 1.89 1.89 0 00-.71.61 2.75 2.75 0 00-.46.94 4.23 4.23 0 00-.17 1.22 4.56 4.56 0 00.15 1.21 3.1 3.1 0 00.45.93 2.07 2.07 0 00.71.61 1.82 1.82 0 00.91.26zm5.34.92v-7.73h1.08l.11 1.4a3.75 3.75 0 011-1.16 2 2 0 011.24-.42 1.94 1.94 0 01.82.16l-.21 1.16a1.69 1.69 0 00-.35-.1h-.39a1.7 1.7 0 00-1 .4 3.11 3.11 0 00-.94 1.38v5zm8.28.24a3.8 3.8 0 01-1.43-.28 3.38 3.38 0 01-1.15-.79 3.76 3.76 0 01-.75-1.28 5.07 5.07 0 01-.27-1.71 4.68 4.68 0 01.31-1.73 4 4 0 01.82-1.27 3.4 3.4 0 011.19-.79 3.63 3.63 0 011.43-.26 2.9 2.9 0 011.3.27 4.42 4.42 0 01.95.65l-.67.85A3.67 3.67 0 00201 75a1.91 1.91 0 00-.83-.19 2.22 2.22 0 00-1 .21 2.07 2.07 0 00-.77.61 3.12 3.12 0 00-.51.94 3.9 3.9 0 00-.19 1.22 4.16 4.16 0 00.17 1.21 2.73 2.73 0 00.48.93 2.32 2.32 0 00.75.61 2.26 2.26 0 001 .22 2.13 2.13 0 001-.23 4.15 4.15 0 00.9-.53l.57.88a4.12 4.12 0 01-1.17.71 3.37 3.37 0 01-1.4.24zm6.91.04a3.68 3.68 0 01-1.45-.29 3.39 3.39 0 01-1.17-.8 3.63 3.63 0 01-.78-1.27 5.16 5.16 0 010-3.41 4.2 4.2 0 01.79-1.28 3.57 3.57 0 011.11-.8 3.25 3.25 0 011.29-.27 3.19 3.19 0 011.3.25 2.52 2.52 0 011 .73 3.47 3.47 0 01.59 1.15 5.39 5.39 0 01.2 1.5v.4a2.84 2.84 0 010 .35h-5.22a3 3 0 00.76 2 2.39 2.39 0 001.8.73 3.13 3.13 0 001-.16 4.63 4.63 0 00.9-.43l.45.86a6.59 6.59 0 01-1.13.55 4.15 4.15 0 01-1.44.19zm-2.4-4.69h4.13a2.75 2.75 0 00-.49-1.79 1.7 1.7 0 00-1.4-.62 2 2 0 00-1.47.62 2.61 2.61 0 00-.51.75 3.47 3.47 0 00-.26 1.04zm10.25 4.54v-6.66h-1.05v-1l1.09-.06v-1.23a2.91 2.91 0 01.56-1.88 2.05 2.05 0 011.71-.67 3 3 0 01.69.07 3.25 3.25 0 01.6.19l-.29 1a2.3 2.3 0 00-.88-.2c-.72 0-1.08.5-1.09 1.49V74h1.64v1.06h-1.64v6.67zm7.18.28a3.43 3.43 0 01-1.35-.27 3.47 3.47 0 01-1.14-.8 3.79 3.79 0 01-.78-1.28 4.58 4.58 0 01-.28-1.71 4.63 4.63 0 01.3-1.72 4 4 0 01.8-1.28 3.3 3.3 0 011.14-.79 3.56 3.56 0 012.72 0 3.29 3.29 0 011.13.8 3.77 3.77 0 01.78 1.29 4.84 4.84 0 01.29 1.72 4.78 4.78 0 01-.31 1.71 3.86 3.86 0 01-.79 1.27 3.39 3.39 0 01-2.51 1zm0-1.08a2 2 0 00.91-.21 2.13 2.13 0 00.71-.6 2.89 2.89 0 00.46-.93 4.1 4.1 0 00.16-1.2 3.89 3.89 0 00-.15-1.22 2.7 2.7 0 00-.45-.95 2.07 2.07 0 00-.7-.62 2 2 0 00-.91-.22 2 2 0 00-.9.21 2.1 2.1 0 00-.72.61 2.93 2.93 0 00-.45.94 4.23 4.23 0 00-.17 1.22 4.5 4.5 0 00.15 1.21 3.1 3.1 0 00.45.93 2 2 0 00.7.61 1.88 1.88 0 00.97.17zm5.34.87v-7.73h1.08l.11 1.4a3.62 3.62 0 011-1.16 2 2 0 011.24-.42 2.1 2.1 0 01.82.16l-.26 1.15a1.69 1.69 0 00-.35-.1 2.06 2.06 0 00-.39 0 1.63 1.63 0 00-1 .39 3.11 3.11 0 00-.94 1.38v5zm7.87.05l.06-10.44h6v1.11h-4.7v3.29h4V77h-4v3.79h4.85v1.13zm9.56.05L242 74.14h1.36l1.43 4.4c.12.38.24.77.35 1.15s.24.76.36 1.13h.06l.36-1.13c.12-.38.23-.76.35-1.14l1.49-4.38H249l-2.78 7.72zm8.51.24a3.73 3.73 0 01-1.46-.29 3.35 3.35 0 01-1.17-.8 3.68 3.68 0 01-.78-1.27 5.08 5.08 0 010-3.41 4 4 0 01.79-1.28 3.32 3.32 0 011.11-.79A2.88 2.88 0 01253 74a3.26 3.26 0 011.31.26 2.51 2.51 0 011 .74 3.16 3.16 0 01.59 1.14 5 5 0 01.2 1.5v.41a1.67 1.67 0 010 .34h-5.22a3 3 0 00.76 2 2.39 2.39 0 001.8.73 3.09 3.09 0 001-.16 4.63 4.63 0 00.9-.43l.46.86a7 7 0 01-1.13.55 4 4 0 01-1.45.19zm-2.41-4.69h4.14a2.81 2.81 0 00-.49-1.79 1.72 1.72 0 00-1.41-.62 2.13 2.13 0 00-.79.15 2 2 0 00-.67.47 2.49 2.49 0 00-.51.75 3.19 3.19 0 00-.27 1.04zm6.95 4.56v-7.74h1.08l.11 1.4a3.62 3.62 0 011-1.16 2 2 0 011.24-.42 1.94 1.94 0 01.82.17l-.26 1.14a2.68 2.68 0 00-.35-.1 2.06 2.06 0 00-.39 0 1.75 1.75 0 00-1 .39 3.11 3.11 0 00-.94 1.38v5zm6.11 3.33a3.52 3.52 0 01-.49 0 1.31 1.31 0 01-.41-.12l.26-1 .28.07a1.13 1.13 0 00.3 0 1.39 1.39 0 001.1-.46 3.27 3.27 0 00.66-1.18l.18-.57-3.06-7.77H264l1.56 4.29c.11.34.23.7.36 1.07s.26.75.37 1.11h.06c.12-.35.24-.71.35-1.09s.21-.75.32-1.08l1.41-4.28h1.27l-3 8.35a8 8 0 01-.47 1.07 3.53 3.53 0 01-.6.84 2.7 2.7 0 01-.8.56 2.44 2.44 0 01-.96.19zm9.68-3.27l.06-10.44h6v1.12h-4.69v3.28h4v1.13h-4v3.78h4.86v1.13zm7.8.04v-7.73h1.08l.11 1.12h.05a6.29 6.29 0 011.17-.93 2.67 2.67 0 011.43-.36 2.06 2.06 0 011.81.8 3.77 3.77 0 01.55 2.26v4.9h-1.31v-4.73a2.79 2.79 0 00-.34-1.58 1.28 1.28 0 00-1.11-.49 1.83 1.83 0 00-1.07.29 7.22 7.22 0 00-1.06.89v5.6zm10.79.25a2.47 2.47 0 01-1-.2 1.7 1.7 0 01-.68-.52 2.13 2.13 0 01-.37-.82 4.36 4.36 0 01-.1-1v-4.28h-1.14v-1l1.21-.07.17-2.17h1.1v2.16h2.08v1.05h-2.09v4.29a1.94 1.94 0 00.25 1.11 1.08 1.08 0 00.93.4 1.86 1.86 0 00.45-.06 3.58 3.58 0 00.43-.15l.25 1a6.43 6.43 0 01-.7.2 3.72 3.72 0 01-.79.06zm5.69.03a3.72 3.72 0 01-1.46-.28 3.41 3.41 0 01-1.17-.81 3.73 3.73 0 01-.78-1.26 4.79 4.79 0 01-.28-1.71 4.86 4.86 0 01.31-1.71 4 4 0 01.78-1.27 3.41 3.41 0 011.11-.8 3.25 3.25 0 011.29-.27 3.19 3.19 0 011.31.26 2.54 2.54 0 011 .74 3.21 3.21 0 01.59 1.15 4.93 4.93 0 01.2 1.49v.41a2.9 2.9 0 010 .34h-5.22a3 3 0 00.76 2 2.35 2.35 0 001.8.73 2.86 2.86 0 001-.16 4.63 4.63 0 00.9-.43l.46.86a6 6 0 01-1.14.55 3.66 3.66 0 01-1.46.17zm-2.41-4.69h4.14a2.76 2.76 0 00-.5-1.8 1.73 1.73 0 00-1.4-.62 1.92 1.92 0 00-.79.16 2.15 2.15 0 00-.68.46 2.57 2.57 0 00-.5.76 3.06 3.06 0 00-.27 1.04zm6.94 4.53l.05-7.73h1.08l.1 1.4h.05a3.58 3.58 0 011-1.15 2 2 0 011.24-.43 2.14 2.14 0 01.82.17l-.26 1.14-.35-.09a1.46 1.46 0 00-.39 0 1.75 1.75 0 00-1 .39 3.23 3.23 0 00-.94 1.38v5zm5.43 3.29l.06-11h1.09l.1.89a5.66 5.66 0 011.16-.76 2.77 2.77 0 011.31-.31 3.05 3.05 0 011.32.28 2.63 2.63 0 01.95.8 3.61 3.61 0 01.58 1.25 5.9 5.9 0 01.18 1.63 5.33 5.33 0 01-.27 1.76 4.26 4.26 0 01-.74 1.31 3.45 3.45 0 01-1.07.81 3.13 3.13 0 01-1.28.27 2.43 2.43 0 01-1.07-.25 5.57 5.57 0 01-1.07-.65v3.96zm3.21-4.15a1.91 1.91 0 00.89-.21 2 2 0 00.7-.6 2.87 2.87 0 00.47-1 4.63 4.63 0 00.17-1.29 5.28 5.28 0 00-.1-1.16 2.6 2.6 0 00-.35-.9 1.81 1.81 0 00-.64-.59 2.2 2.2 0 00-.93-.21 2.05 2.05 0 00-1 .27 5.47 5.47 0 00-1.08.77v4.06a3.22 3.22 0 001 .63 2.41 2.41 0 00.87.23zm5.36.94l.05-7.74h1.08l.1 1.4h.05a3.58 3.58 0 011-1.15 2 2 0 011.23-.43 2.15 2.15 0 01.83.17l-.26 1.14-.35-.1a2.25 2.25 0 00-.4 0 1.74 1.74 0 00-1 .39 3.23 3.23 0 00-.94 1.38v5zm6.17-9.3a.91.91 0 01-.64-.24.85.85 0 010-1.22 1 1 0 01.65-.23.91.91 0 01.64.24.75.75 0 01.26.61.76.76 0 01-.26.6 1 1 0 01-.65.24zm-.72 9.32v-7.73h1.31l-.05 7.74zm5.63.23a4.18 4.18 0 01-1.57-.31 4.76 4.76 0 01-1.3-.77l.66-.87a5.17 5.17 0 001 .67 2.86 2.86 0 001.24.26 1.59 1.59 0 001.14-.34 1.11 1.11 0 00.39-.86.85.85 0 00-.16-.52 1.36 1.36 0 00-.4-.39 2.29 2.29 0 00-.56-.3l-.64-.26c-.27-.1-.55-.21-.82-.33a3.84 3.84 0 01-.74-.45 2.24 2.24 0 01-.53-.62 1.58 1.58 0 01-.2-.84 2 2 0 01.19-.87 1.88 1.88 0 01.53-.69 2.29 2.29 0 01.83-.46 3.52 3.52 0 011.12-.16 3.44 3.44 0 011.34.26 4.07 4.07 0 011.06.63l-.63.82a4.16 4.16 0 00-.83-.5 2.18 2.18 0 00-.93-.19 1.47 1.47 0 00-1.08.32 1.07 1.07 0 00-.34.78.75.75 0 00.14.47 1.17 1.17 0 00.38.35 2.74 2.74 0 00.54.28l.65.25.83.34a3.08 3.08 0 01.75.44 1.93 1.93 0 01.55.65 1.87 1.87 0 01.21.92 2.18 2.18 0 01-.19.89 2.14 2.14 0 01-.54.73 2.6 2.6 0 01-.9.5 3.79 3.79 0 01-1.19.17zm7.65.04a3.61 3.61 0 01-2.63-1.08 3.78 3.78 0 01-.78-1.27 4.8 4.8 0 01-.27-1.71 4.65 4.65 0 01.3-1.71 4 4 0 01.79-1.27 3.21 3.21 0 011.11-.8 3.32 3.32 0 012.6 0 2.54 2.54 0 011 .74 3.57 3.57 0 01.59 1.15 5.27 5.27 0 01.2 1.49v.41a2.49 2.49 0 010 .34h-5.22a3 3 0 00.77 2 2.34 2.34 0 001.8.73 2.8 2.8 0 001-.16 4.45 4.45 0 00.91-.43l.45.86a6.24 6.24 0 01-1.13.55 3.75 3.75 0 01-1.49.16zm-2.41-4.69h4.14a2.76 2.76 0 00-.49-1.8 1.74 1.74 0 00-1.41-.62 1.91 1.91 0 00-.78.16 2 2 0 00-.68.46 2.81 2.81 0 00-.51.76 3.63 3.63 0 00-.27 1.04z" fill="#f15f43"/><path d="M202.93 23.71h2.87l1 4.24h.31c3.06-3.24 6.3-4.86 9.79-4.86 7.1 0 12.1 6.18 12.1 16.91s-5 16.9-12.11 16.9c-3.49 0-6.73-1.56-9.79-4.8h-.31v16.1h-3.87zm3.87 23.9c3.24 4.12 6.17 6.17 9.79 6.17 5.37 0 8.55-4.8 8.55-13.72s-3.14-13.73-8.55-13.73c-3.62 0-6.55 2-9.79 6.12zm29.61-23.9h3.81v5.68h.37c2.25-4.31 5.12-6.24 9.36-6.24h.19v3.74h-.5c-4.56 0-7.55 2.62-9.42 8.8v20.65h-3.81zm19.47 0h3.81v32.63h-3.81zm23.44 30.14c4.06 0 6.74-2.56 6.74-6 0-3.93-3.06-4.81-8.42-6.8-6.61-2.44-10.05-4.31-10.05-9.3s4.06-8.67 10.55-8.67c4.24 0 8 2.06 10.85 6l-2.74 2c-2.5-3.3-5.18-4.86-8.8-4.86s-5.86 2.18-5.86 5.36c0 3.5 3.18 4.31 8.61 6.37 6.49 2.43 9.79 4.43 9.79 9.61 0 5.42-4.37 9.35-11.1 9.35-5.12 0-9.05-2-12.29-6.42l2.87-2.31c2.8 3.73 6.05 5.67 9.85 5.67zM297 23.71h3.55v5.06h.25c3.43-3.75 7.05-5.62 10.48-5.62 3.68 0 6.3 1.87 7.8 5.62h.44c3.56-3.75 7-5.62 10.48-5.62q8.24 0 8.24 10.48v22.71h-3.69V35c0-5.74-1-8.49-5.61-8.49-3 0-6.24 2-9.42 6.05v23.78h-3.74V35c0-5.74-1-8.49-5.62-8.49-3 0-6.18 2-9.42 6.05v23.78H297z" fill="#047bc1"/><path d="M95.16 11.11v16.1a9.59 9.59 0 018-4.06c7.86 0 13.1 6.24 13.1 16.66 0 10.86-4.93 17.09-13 17.09a10.36 10.36 0 01-8.73-4.3l-.94 3.74h-4.67c.32-3.24.38-6.3.38-9.17V11.11zM102.27 52c5 0 7.93-4.06 7.93-11.73 0-8-2.87-12.17-8.11-12.17-2.56 0-4.81 1.31-6.93 3.93v15.89c2.12 2.68 4.43 4.08 7.11 4.08zM129 11.11v45.23h-5.86V11.11zm15.17 12.54v22c0 4.31 1.37 6.3 4.8 6.3 2.56 0 5.31-1.43 8.11-4.3v-24H163v32.69h-5.49v-4.43c-3.62 3.25-6.8 4.93-10.48 4.93-5.55 0-8.8-3.43-8.8-9.61V23.65zm31.47 17.41v.62c0 6.61 3 10.3 8.18 10.3 3.43 0 6.05-1.69 7.92-5.12l4.37 2.68a13.61 13.61 0 01-12.6 7.46c-8.93 0-13.85-5.81-13.85-16.6 0-11.17 5-17.28 13.47-17.28 7.8 0 12.79 5.93 12.79 16.28 0 .56-.06 1.13-.06 1.69zm7.3-13.23c-4.3 0-7 3.06-7.23 8.67h14.16c-.13-5.5-2.81-8.67-6.93-8.67z" fill="#124e91"/><path d="M334.05 11.14a4.19 4.19 0 11-4.18 4.19 4.2 4.2 0 014.18-4.19zm0 7.75a3.41 3.41 0 003.38-3.56 3.39 3.39 0 10-6.77 0 3.41 3.41 0 003.4 3.56zm-1.61-6h1.88c1.13 0 1.68.45 1.68 1.38a1.25 1.25 0 01-1.26 1.36l1.39 2.16h-.85l-1.36-2.16h-.68v2.16h-.8zm.8 2.11h.95c.62 0 1-.13 1-.77s-.5-.71-1-.71h-.95z" fill="#167ec2"/><g clip-path="url(#clip-path)" id="Artwork_10" data-name="Artwork 10"><path class="cls-7" d="M64.41 36.44L53.4 42.76l.03.03 11.1 12.7 10.98-6.36-11.09-12.69h-.01z"/><path d="M64.53 55.49L53.6 61.82 42.55 48.98l10.85-6.22.03.03 11.1 12.7zm-.11-19.05h-.01L53.4 42.76 42.5 30.17l10.84-6.41 11.08 12.68z" fill="#d3e2ee"/><path class="cls-7" d="M42.59 68.2l11.01-6.38-11.05-12.84.04 19.22z"/><path fill="#104c8d" d="M42.5 30.17l10.9 12.59-10.85 6.22-.05-18.81z"/><path class="cls-7" d="M42.5 30.17l10.84-6.41-10.89-12.47.05 18.88z"/><path class="cls-10" d="M20.5 55.36L42.59 68.2l-.04-19.22-11.03-6.25-10.88-6.17-.14 18.8z"/><path class="cls-11" d="M42.5 30.17l.05 18.81-11.03-6.25-.05-18.72 11.03 6.16z"/><path class="cls-10" d="M42.45 11.29L31.47 24.01l11.03 6.16-.05-18.88z"/><path fill="#b1c8d5" d="M31.52 42.73l-10.88-6.17h-.01l10.84-12.55.05 18.72z"/><path class="cls-11" d="M9.78 49.13l10.72 6.23.14-18.8h-.01L9.78 49.13z"/></g></svg>