<svg xmlns="http://www.w3.org/2000/svg" width="140" height="50"><g fill="none"><path fill="#00567A" d="M46.889.206h5.38v27.601h-5.38zM10.793 7.367H8.244v5.319h2.549c2.96 0 5.358 2.372 5.358 5.298 0 2.927-2.399 5.299-5.358 5.299-2.96 0-5.36-2.372-5.36-5.299V.206H.056v17.778c0 5.864 4.807 10.617 10.738 10.617 5.93 0 10.737-4.753 10.737-10.617 0-5.863-4.807-10.617-10.737-10.617m23.303.042c-5.93 0-10.738 4.753-10.738 10.617 0 5.863 4.808 10.617 10.738 10.617s10.738-4.754 10.738-10.617c0-2.816-1.131-5.517-3.145-7.508a10.798 10.798 0 00-7.593-3.11m0 15.916a5.36 5.36 0 01-4.952-3.27 5.255 5.255 0 011.16-5.774 5.403 5.403 0 015.84-1.15 5.298 5.298 0 013.31 4.896c0 2.925-2.399 5.297-5.358 5.298m36.321-14.54c-4.211-2.397-9.525-1.7-12.958 1.7a10.528 10.528 0 00-1.697 12.815c2.432 4.159 7.385 6.185 12.078 4.94 4.693-1.245 7.956-5.45 7.955-10.255V.206h-5.378v8.578zm-5.36 14.502a5.36 5.36 0 01-4.95-3.272 5.255 5.255 0 011.162-5.774 5.403 5.403 0 015.84-1.148 5.298 5.298 0 013.308 4.897c-.001 2.925-2.4 5.297-5.36 5.297zm27.215-11c1.682-1.642 2.543-3.353 2.348-5.715C94.268 2.96 91.06.03 87.189.106c-3.99.037-6.964 2.967-7.237 6.694h2.855c.194-2.284 2.141-4.031 4.46-4 2.19 0 4.107 1.636 4.38 3.766.434 3.571-2.504 4.488-3.402 4.907v2.32c3.09.38 5.359 2.814 5.359 5.894.039 3.272-2.543 5.82-5.868 6.01-3.365.19-6.376-2.624-6.376-5.971h-2.934a8.83 8.83 0 002.727 6.354 9.035 9.035 0 006.505 2.503c5.006-.114 9.075-4.143 9.075-9.014-.04-3.348-1.643-5.782-4.46-7.303m16.076-2.875h-.06l-1.52 2.723a6.718 6.718 0 011.59-.174c3.872.076 6.963 2.967 7.002 6.921.078 3.805-3.09 7.113-7.08 7.113-4.068 0-7.042-3.194-7.042-7.113a6.621 6.621 0 01.896-3.285L110.471.687h-3.297l-6.884 12.127c-1.37 2.429-1.84 4.562-1.84 6.047 0 5.82 4.735 9.738 9.825 9.738a9.882 9.882 0 007-2.832 9.66 9.66 0 002.891-6.91c0-4.981-4.42-9.47-9.824-9.47M129.988.071a9.882 9.882 0 00-7.002 2.828 9.66 9.66 0 00-2.895 6.91v9.048c0 5.405 4.43 9.786 9.897 9.786 5.465 0 9.896-4.381 9.896-9.786V9.81a9.66 9.66 0 00-2.894-6.91 9.882 9.882 0 00-7.002-2.828zm7.08 18.79c.077 3.805-3.091 7.113-7.08 7.113-3.99 0-7.16-3.308-7.08-7.113V9.81c-.078-3.805 3.09-7.113 7.08-7.113 3.989 0 7.159 3.308 7.08 7.113v9.052z"/><path fill="#A7A9AC" d="M139.052 34a.291.291 0 01-.062.023c-.011.008-.023.013-.029.018a.033.033 0 00-.016.025v.025a.128.128 0 00.015.032.225.225 0 01.021.027l.135.206.021.031c.007.01.012.021.016.033a.037.037 0 01-.007.04h-.011a.073.073 0 00-.024 0 .083.083 0 01-.037 0h-.02a.054.054 0 01-.022 0 .096.096 0 01-.032-.036.256.256 0 00-.029-.037l-.144-.223a.231.231 0 01-.033-.053.327.327 0 00-.042-.047.082.082 0 00-.034-.008h-.062a.13.13 0 00-.03.008.042.042 0 00-.023.01.153.153 0 00-.013.046v.286a.078.078 0 010 .044.032.032 0 01-.022.019.1.1 0 01-.034.007h-.038l-.032-.01c0-.009 0-.012-.013-.022-.013-.01 0-.014 0-.02v-.014a.075.075 0 010-.029v-.814a.042.042 0 010-.031.04.04 0 01.028-.02h.439c.052.002.102.02.144.05.017.009.031.02.044.034.024.032.04.07.047.109v.061a.098.098 0 010 .05c0 .023-.008.04-.01.049a.202.202 0 01-.043.08.366.366 0 01-.048.051zm-.316-.066a.66.66 0 00.078 0h.074a.508.508 0 00.06-.018.11.11 0 00.045-.037.133.133 0 00.025-.059.105.105 0 000-.056.186.186 0 00-.015-.047.126.126 0 00-.052-.057.351.351 0 00-.082-.024.988.988 0 00-.1 0h-.129a.046.046 0 00-.03.02v.017a.033.033 0 010 .017v.024a.055.055 0 000 .027v.112a.105.105 0 00.013.067c.011.016.03.025.05.023a.599.599 0 00.063-.004v-.005z"/><path fill="#A7A9AC" d="M138.766 34.953a.967.967 0 01-.972-.961c0-.53.434-.961.971-.962.537 0 .973.43.973.96a.97.97 0 01-.972.963zm0-1.772a.813.813 0 00-.816.81c0 .446.367.808.818.808a.813.813 0 00.817-.809.815.815 0 00-.819-.809zM85.273 45.66v-.946a.335.335 0 00-.075-.221.325.325 0 00-.188-.084 1.92 1.92 0 00-.302-.039h-.337c-.114 0-.22.009-.299.009h-2.6a.435.435 0 01-.416-.19.581.581 0 01-.035-.17 1.714 1.714 0 01-.009-.196v-.143c0-.089-.013-.116-.008-.187.004-.072 0-.174 0-.252v-7a.46.46 0 00-.073-.272.29.29 0 00-.232-.109h-1.574a.095.095 0 01-.058 0 .093.093 0 00-.062 0 .36.36 0 00-.235.143.473.473 0 00-.052.207c0 .086-.009.174-.009.264v9.412c-.004.08.017.16.06.228.05.08.135.134.23.143.12.017.241.025.363.024h5.535a.353.353 0 00.22-.058.32.32 0 00.144-.164.382.382 0 00.025-.175 2.082 2.082 0 01-.013-.224zm8.021-3.206v-.081a4 4 0 00-.144-.957.058.058 0 010-.03 2.29 2.29 0 00-.078-.249c-.05-.136-.093-.267-.132-.387a1.448 1.448 0 00-.161-.344c-.071-.107-.136-.212-.201-.309a3.356 3.356 0 00-.216-.293 1.488 1.488 0 00-.289-.297 6.247 6.247 0 00-.33-.26 3.59 3.59 0 00-.613-.337c-.32-.219-1.011-.366-1.796-.366h-.198a1.198 1.198 0 00-.426.027h-.012a2.8 2.8 0 00-1.144.329c-.104.036-.206.08-.305.129a4.448 4.448 0 00-.906.74 3.64 3.64 0 00-.635 1c-.05.115-.089.234-.116.357-.032.124-.068.25-.104.374a.378.378 0 00-.033.143v.058c0 .022-.013.066-.02.1a.368.368 0 00-.016.106 4.904 4.904 0 00-.042.532v.132c-.013.42.05.839.188 1.236.017.067.036.136.05.2.025.1.062.195.11.286.153.358.363.69.623.981.258.282.558.523.89.715.102.055.208.103.318.142.102.039.215.082.333.119.083.036.17.063.258.081.388.116.792.17 1.197.16.405.01.808-.044 1.195-.161.127-.024.25-.06.37-.109.44-.179.849-.425 1.21-.731.353-.318.63-.708.814-1.143.05-.1.09-.206.119-.314.028-.112.064-.222.105-.33 0-.026 0-.05.01-.074.096-.359.141-.728.135-1.099v-.07l-.008-.006zm-2.219 1.083a1.47 1.47 0 01-.09.286 2.177 2.177 0 01-.398.617 1.613 1.613 0 01-.621.393c-.068.03-.145.037-.223.063-.066.017-.133.03-.2.04h-.083a.863.863 0 01-.198.008 1.255 1.255 0 01-.127 0 .37.37 0 00-.093-.013c-.029 0-.073-.012-.112-.022a2.623 2.623 0 01-.262-.076.826.826 0 01-.23-.116 1.547 1.547 0 01-.537-.49 2.985 2.985 0 01-.272-.571 2.803 2.803 0 01-.192-1.13 3.11 3.11 0 01.145-1.012.93.93 0 01.031-.118c.08-.25.202-.484.362-.693.155-.204.362-.364.6-.463a.614.614 0 01.171-.069c.068-.012.134-.028.2-.05a.73.73 0 01.105-.02c.043 0 .03 0 .1-.008.069-.009.179 0 .266-.007a.856.856 0 01.252.021l.193.053c.06.013.12.03.177.05.23.095.434.242.595.429.158.198.286.417.382.651a1.494 1.494 0 01.075.277c.088.31.13.632.124.954a3.33 3.33 0 01-.131.973c0 .015-.003.03-.009.043zm22.397-7.626a.34.34 0 00-.215-.058h-2.546a.358.358 0 00-.23.071.395.395 0 00-.161.19c-.03.08-.06.157-.087.236a10.32 10.32 0 00-.144.46c-.044.149-.097.304-.145.461-.193.606-.39 1.209-.594 1.808a260.68 260.68 0 00-.6 1.792c-.08.226-.145.448-.215.669-.069.221-.144.44-.213.664a3.24 3.24 0 00-.091.265.32.32 0 01-.051.104c-.05.098-.107.143-.166.143-.107 0-.205-.187-.278-.487a4.819 4.819 0 01-.156-.469 6.391 6.391 0 00-.206-.6 39.17 39.17 0 01-.66-1.887 47.006 47.006 0 00-.645-1.876 49.42 49.42 0 01-.167-.49c-.054-.16-.113-.318-.172-.476a8.547 8.547 0 01-.089-.27.411.411 0 00-.144-.212.616.616 0 00-.379-.102h-2.425a.09.09 0 01-.058 0 .086.086 0 00-.06 0 .356.356 0 00-.236.143.566.566 0 00-.042.17c-.012.075-.018.15-.016.226v9.237c-.001.105.004.21.016.316 0 .086.038.169.104.227.062.049.14.077.22.078.088 0 .186.009.296.009h1.007a.56.56 0 00.22-.022.29.29 0 00.223-.132.274.274 0 00.06-.189v-4.817a3.47 3.47 0 00.014-.323v-.971c0-.068.033-.185.12-.173a.1.1 0 01.072.027.41.41 0 01.062.048 1.6 1.6 0 01.16.336c.01.019.016.039.028.06l1.945 5.51a2 2 0 00.08.219c.041.087.07.164.106.224a.383.383 0 00.162.17.365.365 0 00.175.059c.086.01.174.014.261.014.091 0 .187 0 .28-.009.094-.008.175 0 .243 0h.344c.06.005.122.005.182 0a.255.255 0 00.253-.19c.023-.053.042-.08.064-.143l.065-.155 2.037-5.857a.03.03 0 010-.009.78.78 0 01.069-.156c.027-.053.052-.083.087-.143 0-.011.014-.028.029-.048a.182.182 0 01.12-.053c.06.02.067.029.082.104.012.102.015.205.011.307 0 .089.015.162.01.243-.007.082 0 .166 0 .243v.376c0 .12 0 .253.014.386v4.758a.274.274 0 00.059.189.196.196 0 00.144.103c.055.012.122.025.198.045h1.114c.104 0 .205 0 .29-.008a.378.378 0 00.22-.079.284.284 0 00.094-.227c0-.103.01-.209.01-.316v-9.413a.343.343 0 00-.159-.33zm-12.033 3.153a.297.297 0 00-.112-.24.374.374 0 00-.215-.083h-1.305a.472.472 0 00-.213.069.322.322 0 00-.083.143.759.759 0 00-.011.096c-.03.174-.091.314-.22.33a.216.216 0 01-.192-.088.577.577 0 01-.101-.081 1.782 1.782 0 00-.163-.143c-.06-.044-.073-.056-.103-.081l-.091-.067a2.31 2.31 0 00-.422-.209 1.58 1.58 0 00-.578-.143 2.567 2.567 0 00-.433-.026h-.04c-.1 0-.202 0-.288.01h-.022a1.874 1.874 0 00-.722.158 3.51 3.51 0 00-.653.301 1.92 1.92 0 00-.145.094c-.045.033-.101.073-.144.11l-.087.087c-.06.04-.118.082-.173.128a.64.64 0 00-.132.142c-.066.088-.134.172-.198.255a1.922 1.922 0 00-.17.271 2.53 2.53 0 00-.242.499 3.255 3.255 0 00-.063.178 3.293 3.293 0 00-.227.982.283.283 0 000 .083c-.01.118-.017.24-.022.367v.163c0 .682.104 1.285.268 1.628a.645.645 0 00.03.064c.16.392.38.755.656 1.078.28.31.634.548 1.029.694.114.05.233.087.356.108.126.026.26.052.402.083.035.01.072.015.108.015a.45.45 0 01.097.011h.116c.079.016.16.022.24.019a.948.948 0 00.235-.019c.05 0 .101-.016.16-.02.057-.004.11-.013.167-.021l.34-.089c.111-.03.219-.07.323-.117.104-.044.204-.097.297-.16a3.858 3.858 0 00.354-.263c.022-.019.047-.043.071-.061a.225.225 0 01.1-.049.207.207 0 01.178 0c.104.059.12.179.104.359v.082a.729.729 0 00-.009.113c0 .107-.026.199-.03.302a2.107 2.107 0 01-.038.285c-.017.069-.033.13-.043.19a1.15 1.15 0 01-.044.175 1.91 1.91 0 01-.34.513 1.358 1.358 0 01-.3.238.84.84 0 01-.169.092l-.047.024a.33.33 0 01-.091.026c-.136.04-.274.069-.415.084a2.22 2.22 0 01-.722-.032 1.109 1.109 0 01-.351-.125.697.697 0 01-.135-.075 1.932 1.932 0 01-.188-.145v-.007a1.002 1.002 0 01-.156-.19.353.353 0 01-.031-.036 4.047 4.047 0 01-.177-.256.471.471 0 00-.297-.153c-.051 0-.09 0-.125-.008a.684.684 0 00-.127-.009h-.851a1.275 1.275 0 00-.332.023.377.377 0 00-.228.123.299.299 0 00-.04.286c.01.022.015.047.014.071a.153.153 0 00.033.09c.12.375.346.708.651.959.307.244.647.444 1.012.591.09.041.182.074.277.099.093.02.187.044.29.064a.21.21 0 00.05.016 4.626 4.626 0 001.013.098h.057c.337.003.674-.026 1.004-.088a2.2 2.2 0 00.317-.059c.12-.03.234-.06.34-.09a1.97 1.97 0 00.329-.117c.352-.14.675-.343.952-.599.275-.263.494-.577.646-.924a1.72 1.72 0 00.111-.341 3.78 3.78 0 01.095-.389c.01-.079.018-.143.023-.213l.02-.211c.008-.077 0-.153.01-.229.008-.076 0-.143 0-.226V39.41c-.015-.123-.017-.233-.02-.345zm-1.978 3.507a2.74 2.74 0 01-.06.429 1.686 1.686 0 01-.104.334c-.088.23-.215.444-.375.632a1.51 1.51 0 01-.601.408.718.718 0 01-.234.075h-.01a1.46 1.46 0 01-.224.038h-.04c-.046 0-.095.007-.145.007a.136.136 0 01-.073 0 1.204 1.204 0 01-.221-.019h-.03l-.055-.01a1.476 1.476 0 01-.256-.086c-.036-.018-.073-.03-.106-.049a1.4 1.4 0 01-.532-.46 2.752 2.752 0 01-.322-.669c-.015-.045-.023-.09-.034-.134a3.036 3.036 0 01-.053-.3v-.031a3.104 3.104 0 01-.022-.276 2.327 2.327 0 010-.354c.004-.12.015-.241.035-.36.007-.074.02-.146.038-.217v-.009a.297.297 0 01.031-.116c.028-.114.071-.225.127-.328.063-.133.133-.262.211-.386.144-.217.35-.385.593-.483.014 0 .03-.01.046-.014.194-.089.405-.132.618-.126.156-.002.31.02.46.062.198.033.385.11.549.225.272.2.478.475.592.79.03.062.054.125.075.19l.058.205a5.702 5.702 0 01.036.221c.029.12.044.242.045.364a3.83 3.83 0 01-.017.447zm22.323-.675a3.511 3.511 0 00-.118-.547 4.007 4.007 0 00-.255-.715 1.902 1.902 0 00-.114-.238c-.01-.016-.02-.027-.027-.042a4.312 4.312 0 00-.395-.603.143.143 0 01-.02-.03 2.03 2.03 0 00-.351-.341 2.916 2.916 0 00-.266-.199c-.301-.2-.628-.36-.972-.475h-.007a3.358 3.358 0 00-1.156-.167h-.145l-.267.011a1.07 1.07 0 00-.172.019.117.117 0 00-.033 0 2.762 2.762 0 00-.425.088 2.113 2.113 0 00-.415.123 3.859 3.859 0 00-2.167 2.153 2.191 2.191 0 00-.098.286c-.1.313-.16.637-.18.965v.052a2.872 2.872 0 00-.008.223v.104a3.91 3.91 0 00.275 1.541c.028.098.064.193.107.286.15.332.354.637.605.903.252.26.536.488.845.678.081.051.168.093.259.125.085.031.413.164.559.21.133.04.268.073.404.097h.032c.156.033.314.05.473.053.088 0 .177.01.268.01h.102c.998-.06 1.155-.155 1.657-.325.224-.075.432-.189.615-.337.29-.214.54-.476.74-.775a2.446 2.446 0 00.368-.689.41.41 0 00.023-.174.263.263 0 00-.163-.223h-.326a.337.337 0 00-.094 0 .18.18 0 00-.038 0h-.49a.74.74 0 00-.079 0h-.216a.51.51 0 00-.323.171c-.033.04-.075.093-.107.129a3.161 3.161 0 01-.144.167.802.802 0 01-.216.167 3.658 3.658 0 01-.335.187 1.56 1.56 0 01-.433.13c-.025 0-.05.013-.077.016h-.039l-.2.013a1.82 1.82 0 01-.25 0h-.006a1.896 1.896 0 01-.723-.154.716.716 0 01-.092-.05 1.498 1.498 0 01-.468-.405 1.992 1.992 0 01-.3-.571.386.386 0 00-.027-.063 1.273 1.273 0 01-.032-.187v-.109a.27.27 0 010-.107.185.185 0 01.048-.113.059.059 0 01.023-.028.306.306 0 01.145-.119.51.51 0 01.17-.03h3.814c.087 0 .188 0 .302.007.113.009.227.009.34 0a2.73 2.73 0 00.31-.027.444.444 0 00.214-.081.272.272 0 00.106-.19c.018-.122.024-.246.02-.369 0-.145-.018-.29-.055-.431zm-2.206-.325a.336.336 0 01-.3.125c-.157 0-.301.008-.433.008h-2.05a.618.618 0 01-.323-.073.253.253 0 01-.097-.142.424.424 0 01-.007-.182.827.827 0 01.052-.19 1.559 1.559 0 011.029-.96 1.06 1.06 0 01.167-.05 2.24 2.24 0 01.254-.044c.042 0 .658-.079 1.06.234.224.162.411.369.548.607.026.066.07.172.123.316a.357.357 0 01-.023.351z"/><path fill="#A7A9AC" d="M131.102 32.51c-3.554-.001-6.759 2.115-8.12 5.361a8.616 8.616 0 001.904 9.468 8.859 8.859 0 009.575 1.884c3.283-1.345 5.424-4.513 5.423-8.027 0-4.796-3.932-8.684-8.782-8.686zm-3.016 13.714a.412.412 0 01-.264.162.508.508 0 01-.224.013 2.155 2.155 0 00-.237-.013h-.867a2.571 2.571 0 01-.303-.015.394.394 0 01-.227-.088.344.344 0 01-.09-.217c0-.099-.014-.202-.014-.309V37c0-.134 0-.296-.009-.48a.757.757 0 01.07-.396.403.403 0 01.19-.143.27.27 0 00.08-.008.292.292 0 01.07 0h1.583a.29.29 0 01.22.11.469.469 0 01.082.261c.007.11.008.227.008.355v9.177a.611.611 0 01-.068.345v.003zm8.68-4.405v4.208a.327.327 0 01-.215.329.73.73 0 01-.21.03h-1.038c-.105 0-.21-.007-.315-.022a.308.308 0 01-.215-.125.425.425 0 01-.068-.226v-3.509c0-.361-.016-.697-.046-1a1.61 1.61 0 00-.265-.781 1.058 1.058 0 00-.488-.37 1.445 1.445 0 00-.607-.113 1.247 1.247 0 00-.666.151 1.205 1.205 0 00-.267.143 1.36 1.36 0 00-.56.979c-.064.48-.095.964-.093 1.448v2.989a.456.456 0 01-.044.219.3.3 0 01-.237.19 2.405 2.405 0 01-.4.03h-.74a3.05 3.05 0 01-.323-.015.32.32 0 01-.236-.103.567.567 0 01-.098-.38c0-.164.009-.322.009-.468v-6.25a.385.385 0 01.086-.223.176.176 0 01.096-.063c.047-.016.095-.028.144-.037h.061a.787.787 0 01.155-.013h1.004c.07.002.138.015.202.039.065.02.118.068.145.13.02.05.02.108.039.173.04.168.085.352.214.368a.206.206 0 00.163-.066.79.79 0 00.105-.102c.084-.098.181-.183.29-.252a2.237 2.237 0 01.756-.36l.03-.01c.08-.028.165-.047.25-.056l.118-.02a3.08 3.08 0 01.867-.038c.37.013.733.097 1.07.247.386.175.711.46.934.819.07.107.125.222.164.344.04.118.08.246.119.371.017.074.03.148.036.223.006.069.018.137.036.203a.301.301 0 00.016.116c.022.142.032.285.03.428l-.01.425zm-69.284.335c.022.099.032.2.029.3.002.1-.003.2-.015.3v.123a.643.643 0 00-.01.126.872.872 0 00-.03.224c0 .077-.01.154-.03.229a1.087 1.087 0 01-.027.204 3.424 3.424 0 00-.082.359 1.753 1.753 0 01-.111.341 4.405 4.405 0 01-.665 1.143 2.754 2.754 0 01-1.325.851c-.09.026-.192.05-.3.082a.574.574 0 01-.184.03 1.08 1.08 0 00-.188.013h-.13a.593.593 0 01-.238.021.82.82 0 01-.235-.034h-.09a1.282 1.282 0 00-.163-.023 1.29 1.29 0 01-.177-.022c-.183-.047-.36-.098-.515-.142a1.813 1.813 0 01-.445-.203c-.057-.04-.116-.077-.168-.117a1.343 1.343 0 01-.157-.132l-.086-.06a.436.436 0 00-.092-.043c-.087-.03-.145-.01-.162.059a.596.596 0 00-.094.241.352.352 0 01-.111.213.446.446 0 01-.208.064c-.078 0-.168.008-.265.008h-.923a.523.523 0 01-.2-.02.308.308 0 01-.229-.27 4.105 4.105 0 01-.022-.445v-9.247a.455.455 0 01.073-.276.29.29 0 01.208-.132.115.115 0 01.066-.008.098.098 0 00.065-.007h.934c.151-.001.303.006.453.023a.288.288 0 01.253.224c.033.127.044.259.032.389a5.78 5.78 0 00-.016.414v1.915a1.06 1.06 0 00.029.278c.009.049.023.09.03.124a.09.09 0 00.072.065.11.11 0 00.083.027.172.172 0 00.08-.013c.068-.037.133-.078.194-.123.058-.044.123-.09.191-.143a2.926 2.926 0 01.857-.395.79.79 0 01.235-.05c.081-.004.161-.017.239-.039a.78.78 0 01.22-.029h.384a.3.3 0 00.104.008.292.292 0 01.117.01c.11.027.21.05.304.064.094.016.186.043.274.078.414.161.79.404 1.106.715.303.32.547.69.723 1.093.049.12.09.242.125.367s.07.257.112.395a.99.99 0 01.036.195c.005.072.017.143.036.213a.36.36 0 01.023.16.607.607 0 00.007.177l-.001.108zm-2.188 1.372c.037-.12.064-.241.081-.365.025-.147.04-.295.045-.444v-.453a1.696 1.696 0 00-.05-.387c-.03-.09-.05-.184-.06-.278a.708.708 0 00-.076-.248 2.426 2.426 0 00-.578-.868c-.252-.237-.617-.357-1.101-.357a.72.72 0 00-.103.007.73.73 0 01-.104.008l-.19.049c-.06.017-.119.033-.178.053a1.417 1.417 0 00-.65.531c-.156.245-.28.508-.37.783a.768.768 0 00-.052.24 1.335 1.335 0 01-.038.242.574.574 0 00-.013.142.273.273 0 00-.007.118.349.349 0 01-.007.117 1.084 1.084 0 00-.018.323c.007.098.022.196.045.292.019.08.032.162.038.245.004.08.022.16.052.235.076.25.184.49.32.715.131.206.31.378.52.504.152.093.316.162.489.204a.24.24 0 01.068.009.438.438 0 00.08 0c.047.01.095.018.144.023.06.003.119 0 .178-.01l.27-.052c.084-.012.167-.033.247-.064.258-.114.48-.297.64-.527a3.03 3.03 0 00.378-.787zm2.493-4.79h1.418a.534.534 0 01.255.058c.124.089.21.22.242.367.045.168.09.318.145.453.05.119.092.241.124.366.038.124.078.247.126.363.078.227.154.446.222.666.068.22.145.428.223.651l.31.916c.028.091.054.181.081.274.025.092.057.182.096.269.027.078.06.167.096.262.025.093.118.15.213.132a.264.264 0 01.05-.039.093.093 0 00.052-.031.845.845 0 00.076-.143c.021-.049.04-.097.062-.143.049-.11.088-.225.115-.343.03-.123.062-.241.103-.358.144-.409.273-.813.402-1.213.128-.4.258-.802.395-1.213.05-.131.091-.265.126-.4.035-.131.077-.26.126-.387l.084-.229a.34.34 0 01.144-.181.358.358 0 01.22-.08c.09 0 .189-.009.289-.009h.901c.1 0 .19.009.29.016a.347.347 0 01.206.089.25.25 0 01.029.262 2.26 2.26 0 01-.075.233c-.03.077-.058.16-.089.235-.144.34-.273.688-.4 1.045s-.257.705-.397 1.045a4.747 4.747 0 00-.162.441 8.776 8.776 0 01-.162.449c-.056.147-.102.265-.144.394-.042.128-.1.257-.145.394-.196.486-.378.976-.556 1.467-.178.492-.353.977-.552 1.453a.952.952 0 00-.063.192.895.895 0 01-.07.174 12.78 12.78 0 00-.218.54 5.036 5.036 0 01-.224.504 2.53 2.53 0 01-.28.446c-.115.14-.25.263-.402.364-.129.09-.27.161-.42.212a5.787 5.787 0 01-.494.155.946.946 0 01-.239.027.956.956 0 00-.234.03h-.664c-.107 0-.214 0-.318-.015-.104-.016-.198-.019-.28-.035a.463.463 0 01-.184-.068.247.247 0 01-.094-.143 2.263 2.263 0 01-.055-.197v-.882c0-.184.06-.301.18-.348a.56.56 0 01.197-.039.555.555 0 01.215.025h.526a.391.391 0 01.123-.016.24.24 0 00.117-.03.819.819 0 00.59-.596.825.825 0 00.057-.177.326.326 0 000-.204.475.475 0 01-.028-.143.414.414 0 00-.03-.143c-.06-.194-.124-.389-.191-.579a10.98 10.98 0 00-.222-.558c-.076-.183-.144-.373-.213-.557-.07-.185-.135-.37-.214-.556a3.669 3.669 0 01-.127-.35 3.261 3.261 0 00-.125-.35c-.157-.37-.302-.75-.433-1.143a17.151 17.151 0 00-.433-1.143.275.275 0 01-.03-.094c0-.03-.01-.06-.03-.083a4.472 4.472 0 01-.2-.533 4.114 4.114 0 00-.197-.517c-.023-.058-.052-.143-.094-.256a.394.394 0 01-.024-.285.232.232 0 01.19-.143.104.104 0 01.052-.007.058.058 0 00.044-.01z"/></g></svg>